# xmcd
#
# Track frame offsets:
# 150
# 15000
# 28725
# 46650
# 62400
# 78375
# 95925
# 112650
# 128475
# 143400
# 157575
# 171825
# 187275
# 207375
# 221850
# 237525
# 253575
# 268875
# 286350
# 301725
# 318675
# 334425
#
# Disc length: 4649 seconds
#
#
# Revision: 1
# Processed by: cddbd v1.5.2PL0 Copyright (c) Steve Scherf et al.
# Submitted via: FreeRIP 2.951 
#
DISCID=37122716
DTITLE=Various Artist - Tanecni Liga 88
DYEAR=2006
DGENRE=Dance
TTITLE0=Bob Sinclar - World, hold on children of the sky (radio edit)
TTITLE1=Danzel - Undercover (radio version)
TTITLE2=Karma - Pusti da te vodi ritam (karma vs pipi rmx radio)
TTITLE3=Tatu - Friend of foe (l.e.x. global oxygen edit)
TTITLE4=Tiesto pres. Allure - The loves we lost (radio edit)
TTITLE5=Klubbhoppers - Crazy duck (radio edit)
TTITLE6=Carolina Marquez - Pleasure ground (original pleasure radio mix)
TTITLE7=Paris Avenue ft. Robin One - In my mind (radio mix)
TTITLE8=Blank and Jones - Catch (radio edit)
TTITLE9=Raw Style - All day and all of the night (style radio mix)
TTITLE10=Starstylers vs Michy - Keep on moving (radio edit)
TTITLE11=Morandi - Beijo (Uh la la) (album version)
TTITLE12=Colonia - Nema nade (album version)
TTITLE13=Boogie Pimps - I've got the music in me (radio version)
TTITLE14=Horny Morris - Written all over your face (psycho radio edit)
TTITLE15=Basto - Rock with you  (radio edit)
TTITLE16=Antibazz vs Deep Melange - Wonderful life (radio version)
TTITLE17=Youne - Such a shame (club radio edit)
TTITLE18=Mvp - Bounce, shake, move, stop (radio edit)
TTITLE19=Black Eyed Peas - My humps (radio edit)
TTITLE20=Tereza Kerndlova - Orchidej (album version)
TTITLE21=Nancy and Robert - Chci te (radio edit)
EXTD=
EXTT0=
EXTT1=
EXTT2=
EXTT3=
EXTT4=
EXTT5=
EXTT6=
EXTT7=
EXTT8=
EXTT9=
EXTT10=
EXTT11=
EXTT12=
EXTT13=
EXTT14=
EXTT15=
EXTT16=
EXTT17=
EXTT18=
EXTT19=
EXTT20=
EXTT21=
PLAYORDER=
